<svg id="Layer_1" data-name="Layer 1" xmlns="http://www.w3.org/2000/svg" viewBox="0 0 498.72 518.5"><defs><style>.cls-1{fill:#0d785d;}.cls-2{font-size:290px;fill:#fff;font-family:Helvetica;}</style></defs><path class="cls-1" d="M552.54,380.48C536.71,363.81,509.69,352.7,496,334c-15.23-20.8-16.42-48.05-16-73.84.1-6.15,1.44-12.94-1.66-18.62-2.9-5.32-8.6-8.39-13.79-11.08-12.14-6.3-25.32-10.2-38.4-14-22.9-6.6-49.31.76-63.15-20.48-11.62-17.83-8.85-56-20.11-74-14.11-22.53-42.77-18.12-64.89-12.85-27.41,6.53-53.15,18.75-77.66,32.4-7.78,4.33-15.46,8.84-23.11,13.4-2.18,1.3-3.12.64-5.23,2-3,2-2,1-5,4-.5,1-1.5,3-2,4a9.14,9.14,0,0,0-1,4c0,2-.51,2.29-.74,4.16-1.38,11.29-2.73,22.6-4.46,33.83s-4.23,23.91-12,32.87c-7.35,8.52-19,10.88-27.32,18.11-10.13,8.77-10.25,22.29-9.08,34.62,2.59,27.5,13.93,55,8.94,82.9-2.46,13.71-9.41,23.91-18.85,33.78-8.79,9.19-17.3,18.23-21.58,30.49-8.5,24.34.19,51.42,8.54,74.54,2,5.44,4,10.91,7.76,15.4,4.16,5,10.18,8,16.33,9.77,13.18,3.87,27.4,4.07,41,4.07,30,0,56.92,29.85,86.41,35.46,28.52,5.43,58.56-5.44,86,4,27.76,9.56,55.35,11.39,82.3,23,11.91,5.14,25.21,11.12,37.24,2.88,5.15-3.52,9.39-8.4,13.74-12.82q8.36-8.48,16.46-17.18c19.43-20.83,27.9-30.31,45.26-52.9,8.8-11.44,27.48-35.32,35.43-47.37,7.19-10.89,13.74-22.65,16.92-35.4C578.34,419.19,569,397.8,552.54,380.48ZM507,463c-15.76,22.6-303.06-72.9-321-52-9.14,10.65,9.63,85.8,0,96-4.61,4.88,277.72,4.23,273,9-4.31,4.36,33.16-4.67,27-3-6.36,1.72-55.24-4.54-61-7-6.66-2.85-14.33,6.81-21,4-13.16-5.54-19.66-26.91-33-32-52-19.82-40.33,11.21-96,7C261.08,484,258,471,244,471c-13.51,0,7.81-4.07-5-9-12.52-4.82,38.63-8.44,35-20s17,40.32,17,28c0-12.85-51.3-.14-43-10,7.82-9.28,25.81,31.59,32,21,13-22.19-15.27-13-20-37-2.77-14-10.84-7.62-11-22-.07-5.93-1.16-.42,3-5,3.52-3.88,4.42-3.64,9-6,10-5.17,3-1.67,8-12s-12.49-38.87-11-50c1.23-9.19.83-13.8,2-23,.61-4.83.83-12.5,5-15,19.95-11.95-58.35-.75-37-10,12.25-5.3-51,18.15-38,15,11.91-2.89-15.23,225.31-3,228,22.54,5,150.41-104.13,155-86,2.58,10.21-9.9,29-3,37,7.34,8.55-55.07,23.1-45,28,23,11.18,225.16-66.36,248-55,5.45,2.71-198.42-197.82-198-191,.4,6.49,17.57,16.46,18,23,.82,12.37,31.69,28.38,36,40,8.3,22.4,14.29,31.24,32,47,15.29,13.6,34.44,9.75,43,29C484.14,441.06,521.23,442.6,507,463Z" transform="translate(-75.45 -104.9)"/><text class="cls-2" transform="translate(167.64 379.02)">b</text><text x="-75.45" y="-104.9"/></svg>